<svg width="1200" height="900" viewBox="0 0 1200 900" fill="none" xmlns="http://www.w3.org/2000/svg">
  <rect width="1200" height="900" rx="40" fill="#F4EAD7"/>
  <path d="M0 644C179 562 355 544 519 586C690 630 811 739 979 743C1061 745 1130 726 1200 687V900H0V644Z" fill="#A6C774"/>
  <path d="M0 724C132 676 289 673 424 715C568 760 685 841 867 831C986 825 1088 787 1200 739V900H0V724Z" fill="#709F58"/>
  <rect x="666" y="203" width="298" height="274" rx="26" fill="#D06A3F"/>
  <rect x="705" y="244" width="220" height="108" rx="16" fill="#FFE7BA"/>
  <rect x="751" y="399" width="128" height="78" rx="12" fill="#7E4934"/>
  <path d="M630 500H1001" stroke="#7E4934" stroke-width="18" stroke-linecap="round"/>
  <path d="M712 500V661" stroke="#7E4934" stroke-width="18" stroke-linecap="round"/>
  <path d="M919 500V661" stroke="#7E4934" stroke-width="18" stroke-linecap="round"/>
  <rect x="195" y="282" width="286" height="236" rx="26" fill="#325C45"/>
  <rect x="227" y="316" width="222" height="166" rx="16" fill="#D6E4C8"/>
  <path d="M309 566H363V667H309V566Z" fill="#4B7A5A"/>
  <path d="M280 664H393" stroke="#2A4536" stroke-width="18" stroke-linecap="round"/>
  <path d="M255 375H422" stroke="#86A770" stroke-width="18" stroke-linecap="round"/>
  <path d="M255 429H393" stroke="#86A770" stroke-width="18" stroke-linecap="round"/>
  <path d="M546 591C604 535 655 516 731 515" stroke="#608B49" stroke-width="16" stroke-linecap="round"/>
  <path d="M586 641C649 599 706 590 779 597" stroke="#608B49" stroke-width="16" stroke-linecap="round"/>
  <rect x="861" y="573" width="88" height="79" rx="16" fill="#E9B65D"/>
  <rect x="891" y="542" width="30" height="42" rx="8" fill="#4E7A3D"/>
  <rect x="976" y="595" width="92" height="57" rx="14" fill="#F2C76D"/>
  <rect x="1020" y="564" width="25" height="35" rx="8" fill="#648D4D"/>
  <circle cx="572" cy="255" r="51" fill="#FFD36B"/>
  <path d="M560 259C560 229 585 204 615 204H655V300C655 330 630 355 600 355H560V259Z" fill="#E0D6B7"/>
  <path d="M536 353C577 353 611 320 611 279V228H553C512 228 478 261 478 303C478 331 501 353 529 353H536Z" fill="#CCB485"/>
  <path d="M145 596C145 596 188 537 255 537C322 537 360 596 360 596" stroke="#3B5C2D" stroke-width="18" stroke-linecap="round"/>
  <path d="M331 588C331 588 374 522 444 522C515 522 557 588 557 588" stroke="#3B5C2D" stroke-width="18" stroke-linecap="round"/>
</svg>
